<?xml version="1.0" standalone="no"?><!DOCTYPE svg PUBLIC "-//W3C//DTD SVG 1.1//EN" "http://www.w3.org/Graphics/SVG/1.1/DTD/svg11.dtd"><svg t="1491263500353" class="icon" style="" viewBox="0 0 1024 1024" version="1.1" xmlns="http://www.w3.org/2000/svg" p-id="6309" xmlns:xlink="http://www.w3.org/1999/xlink" width="200" height="200"><defs><style type="text/css"></style></defs><path d="M976.296 296.028c-24.834-58.17-82.6-99.052-149.742-99.052-89.732 0-162.732 73-162.732 162.732s73 162.732 162.732 162.732c66.774 0 124.256-40.44 149.314-98.102a475.43 475.43 0 0 1 8.104 87.656c0 260.248-211.724 471.968-471.97 471.968S40.03 772.248 40.03 512 251.752 40.03 512 40.03c85.956 0 170.084 23.324 243.29 67.452 9.468 5.71 21.768 2.658 27.474-6.808 5.706-9.468 2.658-21.768-6.808-27.474C696.514 25.312 605.24 0 512 0 229.68 0 0 229.68 0 512c0 282.316 229.68 512 512 512s512-229.68 512-511.998c0-75.548-16.076-148.154-47.704-215.974z m-149.744 186.388c-67.66 0-122.704-55.046-122.704-122.704s55.044-122.704 122.704-122.704c48.02 0 89.66 27.744 109.804 68.028 0.136 0.322 0.256 0.648 0.41 0.966 1.016 2.092 1.972 4.206 2.956 6.308a121.98 121.98 0 0 1 9.532 47.4c0 67.662-55.042 122.706-122.702 122.706z" fill="" p-id="6310"></path><path d="M426.326 196.98c-89.732 0-162.732 73-162.732 162.732s73 162.732 162.732 162.732 162.732-73 162.732-162.732-73.002-162.732-162.732-162.732z m0 285.436c-67.66 0-122.704-55.046-122.704-122.704s55.044-122.704 122.704-122.704 122.704 55.046 122.704 122.704-55.046 122.704-122.704 122.704zM717.692 670.316H504.616c-11.054 0-20.014 8.958-20.014 20.014s8.962 20.014 20.014 20.014h213.076c11.054 0 20.014-8.958 20.014-20.014s-8.96-20.014-20.014-20.014z" fill="" p-id="6311"></path><path d="M450.33 359.704m-20.014 0a20.014 20.014 0 1 0 40.028 0 20.014 20.014 0 1 0-40.028 0Z" fill="" p-id="6312"></path><path d="M856.468 359.704m-20.014 0a20.014 20.014 0 1 0 40.028 0 20.014 20.014 0 1 0-40.028 0Z" fill="" p-id="6313"></path><path d="M826.554 132.542m-20.014 0a20.014 20.014 0 1 0 40.028 0 20.014 20.014 0 1 0-40.028 0Z" fill="" p-id="6314"></path></svg>