<?xml version="1.0" standalone="no"?><!DOCTYPE svg PUBLIC "-//W3C//DTD SVG 1.1//EN" "http://www.w3.org/Graphics/SVG/1.1/DTD/svg11.dtd"><svg t="1491263392395" class="icon" style="" viewBox="0 0 1024 1024" version="1.1" xmlns="http://www.w3.org/2000/svg" p-id="5916" xmlns:xlink="http://www.w3.org/1999/xlink" width="200" height="200"><defs><style type="text/css"></style></defs><path d="M511.368 0c-117.676 0-231.146 40.32-322.1 113.994-10.908-16.914-19.288-29.1-22.09-33.138a20.008 20.008 0 0 0-32.876 0c-10.958 15.782-107.062 155.976-107.062 217.622 0 68.1 55.404 123.502 123.502 123.502s123.502-55.404 123.502-123.502c0-36.558-33.8-100.74-63.596-150.22 84.47-69.896 190.588-108.228 300.722-108.228 260.248 0 471.968 211.724 471.968 471.968S771.612 983.968 511.368 983.968c-120.118 0-234.562-45.15-322.252-127.136-87.27-81.588-140.01-191.916-148.502-310.658-0.788-11.024-10.368-19.374-21.392-18.534-11.026 0.788-19.324 10.364-18.534 21.392 9.214 128.838 66.424 248.538 161.088 337.042C256.912 975.018 381.064 1024 511.368 1024c282.316 0 511.998-229.68 511.998-512C1023.364 229.68 793.684 0 511.368 0zM234.212 298.48c0 46.026-37.446 83.472-83.472 83.472-46.026 0-83.472-37.446-83.472-83.472 0-32.106 46.05-113.102 83.474-170.352 5.21 7.968 17.13 27.154 17.854 28.114 32.76 53.098 65.616 115.094 65.616 142.238z" fill="" p-id="5917"></path><path d="M425.12 272.862c-47.886 0-86.848 38.962-86.848 86.848 0 11.056 8.958 20.014 20.014 20.014s20.014-8.958 20.014-20.014c0-25.816 21.002-46.818 46.818-46.818s46.818 21.002 46.818 46.818c0 11.056 8.958 20.014 20.014 20.014s20.014-8.958 20.014-20.014c0.004-47.886-38.956-86.848-86.844-86.848zM763.168 272.862c-47.888 0-86.85 38.962-86.85 86.848 0 11.056 8.958 20.014 20.014 20.014s20.014-8.958 20.014-20.014c0-25.816 21.004-46.818 46.822-46.818 25.816 0 46.818 21.002 46.818 46.818A20.01 20.01 0 0 0 830 379.724a20.01 20.01 0 0 0 20.014-20.014c0.002-47.886-38.96-86.848-86.846-86.848zM782.096 623.186H383.804c-11.056 0-20.014 8.962-20.014 20.014 0 120.846 98.314 219.162 219.162 219.162s219.16-98.314 219.16-219.16a20.012 20.012 0 0 0-20.016-20.016z m-199.146 199.146c-92.012 0-168.04-69.728-178.022-159.116h356.042c-9.978 89.388-86.008 159.116-178.02 159.116z" fill="" p-id="5918"></path><path d="M20.65 475.016m-20.014 0a20.014 20.014 0 1 0 40.028 0 20.014 20.014 0 1 0-40.028 0Z" fill="" p-id="5919"></path></svg>