<?xml version="1.0" standalone="no"?><!DOCTYPE svg PUBLIC "-//W3C//DTD SVG 1.1//EN" "http://www.w3.org/Graphics/SVG/1.1/DTD/svg11.dtd"><svg t="1491263709531" class="icon" style="" viewBox="0 0 1024 1024" version="1.1" xmlns="http://www.w3.org/2000/svg" p-id="15500" xmlns:xlink="http://www.w3.org/1999/xlink" width="200" height="200"><defs><style type="text/css"></style></defs><path d="M943.196 235.822c-51.46-80.184-123.956-144.338-209.648-185.53-9.96-4.784-21.918-0.596-26.71 9.37-4.788 9.962-0.596 21.92 9.37 26.71 79.004 37.978 145.846 97.132 193.3 171.072 48.714 75.904 74.46 163.928 74.46 254.558 0 260.248-211.724 471.97-471.97 471.97S40.03 772.244 40.03 512 251.752 40.03 512 40.03c11.054 0 20.014-8.962 20.014-20.014C532.014 8.962 523.054 0 512 0 229.68 0 0 229.68 0 512s229.68 512 512 512 512-229.68 512-512c0-98.31-27.94-193.812-80.804-276.178z" fill="" p-id="15501"></path><path d="M888.46 339.694H662.266c-11.054 0-20.014 8.962-20.014 20.014s8.962 20.014 20.014 20.014h74.842c9.062 38.27 43.52 66.834 84.52 66.834 47.888 0 86.848-38.962 86.848-86.848 0-11.052-8.962-20.014-20.016-20.014z m-66.83 66.834c-18.66 0-34.804-10.974-42.322-26.804h84.644c-7.518 15.834-23.662 26.804-42.322 26.804zM546.61 339.694H320.414c-11.054 0-20.014 8.962-20.014 20.014s8.962 20.014 20.014 20.014h74.842c9.062 38.27 43.52 66.834 84.52 66.834 47.888 0 86.848-38.962 86.848-86.848 0-11.052-8.962-20.014-20.014-20.014z m-66.834 66.834c-18.658 0-34.804-10.974-42.322-26.804h84.644c-7.518 15.834-23.662 26.804-42.322 26.804zM757.338 746.076c-32.032-32.12-89.018-51.296-152.438-51.296-60.65 0-119.212 19.46-152.838 50.784-8.086 7.534-8.534 20.198-1 28.284a19.964 19.964 0 0 0 14.648 6.372 19.948 19.948 0 0 0 13.64-5.37c26.512-24.7 74.62-40.042 125.55-40.042 52.224 0 99.774 15.148 124.094 39.532 7.806 7.828 20.48 7.844 28.306 0.038 7.828-7.804 7.844-20.478 0.038-28.302z" fill="" p-id="15502"></path><path d="M654.428 43.39m-20.014 0a20.014 20.014 0 1 0 40.028 0 20.014 20.014 0 1 0-40.028 0Z" fill="" p-id="15503"></path></svg>