<?xml version="1.0" standalone="no"?><!DOCTYPE svg PUBLIC "-//W3C//DTD SVG 1.1//EN" "http://www.w3.org/Graphics/SVG/1.1/DTD/svg11.dtd"><svg t="1491263517810" class="icon" style="" viewBox="0 0 1024 1024" version="1.1" xmlns="http://www.w3.org/2000/svg" p-id="10843" xmlns:xlink="http://www.w3.org/1999/xlink" width="200" height="200"><defs><style type="text/css"></style></defs><path d="M496.212907 512.013m-476.816793 0a476.816794 476.816794 0 1 0 953.633587 0 476.816794 476.816794 0 1 0-953.633587 0Z" fill="#FFDB6C" p-id="10844"></path><path d="M598.391506 918.423381c-263.337543 0-476.812794-213.475251-476.812794-476.812793 0-140.690824 60.946357-267.131565 157.864925-354.408077C125.074733 166.130973 19.398114 326.723914 19.398114 512.001c0 263.337543 213.475251 476.812794 476.812793 476.812794 122.646719 0 234.463374-46.320271 318.949869-122.402717-65.034381 33.252195-138.710813 52.012305-216.76927 52.012304z" fill="#FFB04C" p-id="10845"></path><path d="M291.305707 518.83704c-35.410207 0-64.118376 28.706168-64.118376 64.114376h128.232752c0.002-35.410207-28.704168-64.114376-64.114376-64.114376zM850.564984 518.83704c-35.410207 0-64.118376 28.706168-64.118376 64.114376h128.232751c0.002-35.410207-28.704168-64.114376-64.114375-64.114376z" fill="#F9A880" p-id="10846"></path><path d="M221.759299 253.947488c124.500729-28.574167 225.28732-18.74011 336.929975 7.278043 16.554097 3.856023 34.044199 8.158048 52.512307 8.722051 30.76018 0.942006 65.338383-6.714039 95.150558-14.204084 117.70069-29.566173 209.645228-14.188083 298.247747 4.744028l-6.546038 52.360307c-13.832081 0.306002-18.182107 6.75604-22.13413 19.346113-20.680121 65.890386-3.068018 179.26105-155.954914 165.930973-100.580589-8.770051-129.384758-36.328213-177.321039-157.492923-4.078024-10.30606-6.730039-27.33816-30.022175-26.708157-13.152077 0.354002-24.914146 2.680016-29.01617 25.53015-7.646045 42.576249-65.786385 158.256927-183.831078 158.130927-104.264611-0.112001-144.038844-54.232318-148.786871-173.485017-0.590003-14.806087-13.492079-17.618103-21.234125-17.792104l-7.994047-52.360307z" fill="#56586F" p-id="10847"></path><path d="M402.564359 237.467391l-72.812427 248.311455c19.162112 7.884046 42.292248 11.776069 70.02841 11.80407 0.488003 0 0.970006-0.018 1.458009-0.020001l74.080434-252.63548c-24.226142-3.664021-48.352283-6.228036-72.754426-7.460044zM855.357012 239.479403c-24.232142-0.776005-49.386289 0-75.804444 2.950017l-65.002381 221.675299c17.776104 14.928087 38.762227 23.598138 66.468389 28.89417l74.338436-253.519486z" fill="#737891" p-id="10848"></path><path d="M634.521718 781.222577a141.978832 141.978832 0 0 1-90.022528-32.168188c-8.284049-6.79204-9.492056-19.014111-2.700015-27.29816 6.79204-8.286049 19.014111-9.492056 27.30216-2.700016 28.894169 23.696139 68.408401 29.900175 103.132604 16.208095 33.832198-13.348078 58.756344-45.202265 65.044381-83.130487 1.75601-10.568062 11.740069-17.716104 22.310131-15.962093 10.570062 1.75401 17.716104 11.742069 15.966093 22.31013-8.51005 51.300301-42.64425 94.550554-89.084522 112.870662a141.556829 141.556829 0 0 1-51.948304 9.870057z" fill="#7F184C" p-id="10849"></path><path d="M1008.65791 241.517415c-92.634543-19.794116-185.821089-35.036205-307.027799-4.586027-30.188177 7.584044-62.004363 14.484085-89.834526 13.63008-15.548091-0.476003-31.048182-4.096024-46.04027-7.602044l-2.664016-0.624004c-97.26657-22.670133-206.46521-39.24223-345.670025-7.294043a19.398114 19.398114 0 0 0-14.836087 21.834128l8.000047 52.360307a19.396114 19.396114 0 0 0 18.74011 16.462096c0.950006 0.02 1.72801 0.116001 2.326013 0.230002 2.750016 66.008387 15.940093 111.136651 41.476243 141.962832 27.31416 32.968193 68.734403 49.026287 126.628742 49.086287h0.218002c71.188417 0 119.584701-37.840222 147.656865-69.602408 31.476184-35.618209 50.340295-78.148458 55.070322-104.494612 1.238007-6.89604 2.958017-8.60405 2.964018-8.61005 0.282002-0.184001 1.66001-0.800005 7.490044-0.956006 6.008035-0.160001 6.262037-0.170001 9.702057 9.650057 0.592003 1.68601 1.164007 3.302019 1.75801 4.806028 23.394137 59.130346 43.932257 101.200593 73.998433 128.190751 31.796186 28.546167 70.836415 37.230218 119.674702 41.488243 8.802052 0.768005 17.228101 1.154007 25.284148 1.154007 48.494284 0 83.57249-13.950082 106.786626-42.336248 0.592003-0.724004 1.128007-1.476009 1.696009-2.212013 1.038006 12.604074 1.570009 25.266148 1.57001 37.946222 0 252.221478-205.195202 457.41668-457.412681 457.41668S38.794227 764.218478 38.794227 512.001 243.99143 54.58432 496.210907 54.58432c101.058592 0 196.841153 32.288189 276.995624 93.376547 8.52005 6.496038 20.694121 4.850028 27.184159-3.668022a19.394114 19.394114 0 0 0-3.670022-27.184159C709.754159 50.824298 605.83755 15.790093 496.210907 15.790093 222.597304 15.790093 0 238.387397 0 512.001s222.597304 496.210907 496.210907 496.210907c273.609603 0 496.208907-222.597304 496.208908-496.210907 0-36.180212-3.954023-72.238423-11.674068-107.278629 1.914011-8.988053 3.49402-17.912105 5.012029-26.536155 2.584015-14.682086 5.022029-28.550167 8.674051-40.186236 0.986006-3.140018 1.69201-4.790028 2.116012-5.622032 0.440003-0.06 1.074006-0.118001 1.938012-0.138001a19.396114 19.396114 0 0 0 18.81811-16.9841l6.546038-52.360307a19.394114 19.394114 0 0 0-15.192089-21.378125z m-28.152165 55.360325c-15.970094 6.82004-20.744122 22.038129-23.088135 29.508172-4.410026 14.042082-7.060041 29.116171-9.870058 45.080265-1.68801 9.596056-3.34402 18.988111-5.314031 27.986164a19.590115 19.590115 0 0 0-0.450003 1.988011c-10.990064 48.634285-32.128188 85.046498-120.130704 77.362453-91.152534-7.948047-115.222675-29.676174-160.968943-145.302851-0.414002-1.048006-0.806005-2.180013-1.218007-3.35802-3.760022-10.738063-12.476073-35.632209-45.534267-35.632208-0.600004 0-1.212007 0.008-1.82801 0.026-11.030065 0.298002-40.330236 1.086006-47.586279 41.490243-6.546038 36.456214-59.75035 142.162833-164.550964 142.162833h-0.168001c-89.854526-0.098001-124.932732-42.070247-129.424759-154.858907-0.620004-15.654092-9.540056-27.718162-23.460137-33.196195l-3.220019-21.076123c123.262722-24.950146 222.041301-9.574056 310.59782 11.062064l2.640015 0.616004c16.058094 3.756022 34.260201 8.010047 53.682315 8.60405 32.596191 0.994006 67.568396-6.514038 100.474589-14.780086 105.680619-26.548156 189.733112-15.626092 272.059594 1.250007l-2.642016 21.068124z" fill="" p-id="10850"></path><path d="M634.521718 781.222577c17.514103 0 35.140206-3.244019 51.946304-9.874057 46.440272-18.318107 80.574472-61.570361 89.084522-112.870662 1.75001-10.568062-5.396032-20.55612-15.966093-22.31013-10.570062-1.75401-20.55412 5.396032-22.310131 15.962093-6.290037 37.928222-31.212183 69.782409-65.044381 83.130487-34.724203 13.69208-74.238435 7.488044-103.132604-16.208095-8.286049-6.79204-20.51012-5.584033-27.30216 2.700016s-5.584033 20.50612 2.700015 27.29816a141.976832 141.976832 0 0 0 90.024528 32.172188z" fill="" p-id="10851"></path><path d="M834.55689 174.781024m-19.398114 0a19.398114 19.398114 0 1 0 38.796228 0 19.398114 19.398114 0 1 0-38.796228 0Z" fill="" p-id="10852"></path></svg>