<?xml version="1.0" standalone="no"?><!DOCTYPE svg PUBLIC "-//W3C//DTD SVG 1.1//EN" "http://www.w3.org/Graphics/SVG/1.1/DTD/svg11.dtd"><svg t="1491263487028" class="icon" style="" viewBox="0 0 1024 1024" version="1.1" xmlns="http://www.w3.org/2000/svg" p-id="6179" xmlns:xlink="http://www.w3.org/1999/xlink" width="200" height="200"><defs><style type="text/css"></style></defs><path d="M954.626 332.16a430.908 430.908 0 0 0 11.412-94.38c0.762-78.616-20.11-155.604-60.364-222.644-7.286-12.134-21.33-17.752-34.948-13.968-13.672 3.796-22.846 15.898-22.83 30.096v0.44c0 45.29-7.7 89.322-22.864 131.276-84.754-71.154-193.966-114.08-313.03-114.08-108.388 0-213.498 36.146-298.692 102.218-13.28-36.106-20.23-74.61-20.23-114.044v-0.354c0.016-13.44-8.658-24.884-21.584-28.474-12.886-3.576-26.166 1.73-33.062 13.21-34.87 58.076-52.948 124.768-52.288 192.862 0.562 57.878 14.014 113.072 39.986 164.052a19.06 19.06 0 0 0 16.996 10.412 18.976 18.976 0 0 0 8.638-2.082c9.376-4.78 13.108-16.254 8.328-25.636-23.272-45.68-35.328-95.178-35.828-147.114-0.49-50.524 10.52-100.176 32.034-145.288 7.078 83.248 42.05 161.236 100.246 222.308 7.258 7.622 19.324 7.914 26.946 0.65 7.622-7.26 7.91-19.326 0.65-26.946-22.232-23.33-40.678-49.418-55.022-77.448 79.818-64.704 179.738-100.21 282.884-100.21 247.82 0 449.43 201.616 449.43 449.434S759.822 985.882 512.004 985.882 62.568 784.27 62.568 536.452c0-30.12 2.996-60.228 8.906-89.49 2.084-10.318-4.592-20.37-14.91-22.454-10.314-2.086-20.372 4.592-22.454 14.91a491.356 491.356 0 0 0-9.662 97.036C24.45 805.288 243.164 1024 512.002 1024c268.836 0 487.548-218.712 487.548-487.548 0.002-72.91-16.114-142.116-44.924-204.292z m-29.256-53.924a490.616 490.616 0 0 0-70.086-87.65c17.262-42.742 27.334-87.572 30.004-133.734 28.564 55.564 43.246 117.482 42.632 180.564a395.336 395.336 0 0 1-2.55 40.82z" fill="" p-id="6180"></path><path d="M791.63 717.42c-8.242-6.552-20.23-5.178-26.78 3.06-30.804 38.756-70.876 61.322-112.83 63.54-42.568 2.234-84.376-15.358-117.808-49.568-7.356-7.528-19.424-7.67-26.952-0.31-7.526 7.36-7.666 19.424-0.31 26.952 38.812 39.714 87.406 61.238 137.74 61.238 3.108 0 6.22-0.082 9.336-0.25 53.014-2.802 102.97-30.462 140.66-77.882 6.552-8.242 5.182-20.232-3.056-26.78zM578.8 493.002a19.044 19.044 0 0 0-5.324-6.876c-18.642-15.128-46.646-29.434-79.076-46a3752.464 3752.464 0 0 1-23.616-12.132c-12.094-6.282-21.656-11.924-31.78-17.902-12.482-7.366-25.392-14.986-44.066-24.444-9.388-4.762-20.856-1.004-25.612 8.39-4.758 9.39-1.002 20.858 8.39 25.612 17.58 8.904 29.948 16.206 41.91 23.268 10.116 5.972 20.582 12.146 33.594 18.904 2.994 1.552 5.952 3.082 8.876 4.586-6.65 6.294-12.154 14.014-16.24 22.92-9.57 20.856-9.888 45.098-0.854 64.854 12.348 27.002 39.092 42.966 67.008 42.966a73.14 73.14 0 0 0 30.48-6.66c36.884-16.866 53.172-60.6 36.31-97.486z m-52.164 62.824c-17.774 8.124-38.842 0.276-46.972-17.496-4.354-9.52-4.026-22.516 0.836-33.106 2.97-6.474 8.844-14.872 19.968-18.088 0.404-0.116 0.804-0.246 1.196-0.386 17.732 9.294 32.98 17.86 43.99 26.034 5.408 16.842-2.538 35.504-19.018 43.042zM932.182 381.998c-5.324-9.084-17.004-12.126-26.08-6.802l-5.992 3.514c-39.21 23-42.41 24.878-90.636 48.194-32.136 15.536-58.594 30.918-78.63 45.722a19.056 19.056 0 0 0-6.008 7.402c-8.172 17.87-8.894 37.854-2.038 56.268 6.858 18.41 20.48 33.054 38.346 41.224 9.756 4.462 20.138 6.704 30.552 6.704 8.662 0 17.348-1.55 25.712-4.666 18.41-6.858 33.054-20.48 41.226-38.35 8.874-19.414 9.562-42.06 1.884-62.124a75.622 75.622 0 0 0-16.978-26.336c33.838-16.508 41.498-21 75.854-41.152l5.984-3.514c9.082-5.328 12.128-17.002 6.804-26.084z m-108.216 143.358a35.22 35.22 0 0 1-19.864 18.478 35.254 35.254 0 0 1-27.106-0.98 35.22 35.22 0 0 1-18.478-19.864 35.152 35.152 0 0 1-0.642-22.87c12.972-9.168 28.812-18.672 47.302-28.382 11.73 5.402 17.206 14.344 19.74 20.968 3.986 10.42 3.63 22.626-0.952 32.65z" fill="" p-id="6181"></path><path d="M70.794 376.708m-19.058 0a19.058 19.058 0 1 0 38.116 0 19.058 19.058 0 1 0-38.116 0Z" fill="" p-id="6182"></path></svg>